<?xml version="1.0" encoding="iso-8859-1"?>
<!-- Generator: Adobe Illustrator 22.1.0, SVG Export Plug-In . SVG Version: 6.00 Build 0)  -->
<svg version="1.1" id="Layer_1" xmlns="http://www.w3.org/2000/svg" xmlns:xlink="http://www.w3.org/1999/xlink" x="0px" y="0px"
	 viewBox="0 0 144 144" style="enable-background:new 0 0 144 144;" xml:space="preserve">
<g id="Thenos_-_03">
	<g id="circle_4_">
		<path id="circle_5_" style="fill:#FFFFFF;" d="M72,0C32.235,0,0,32.235,0,72c0,39.764,32.235,72,72,72
			c0.081,0,0.161-0.001,0.242-0.002c23.479-0.077,44.311-11.392,57.4-28.848c1.814-2.419,3.478-4.956,4.981-7.598
			c4.845-8.516,8.004-18.117,9.02-28.348C143.879,76.835,144,74.432,144,72C144,32.235,111.765,0,72,0z"/>
		<path id="shadow02_3_" style="fill:#4C9EDA;" d="M103.552,54.214l9.334,9.484l-2.798,1.391l-1.655,1.584v3.24l2.044,1.774
			l6.521,0.69l2.433,0.338l2.044,1.578l0.584,1.655l-0.097,2.336l-2.239,2.474l-3.407,0.405l-5.84-0.405l-1.678-0.331l25.823,27.126
			c4.845-8.516,8.004-18.117,9.02-28.348l-40.772-42.674L103.552,54.214z"/>
		<path id="shadow01_3_" style="fill:#4C9EDA;" d="M102.871,89.087v12.355l0.603,3.913l-3.592,1.548l-62.022,1.02l34.382,36.074
			c23.479-0.077,44.311-11.392,57.4-28.848l-26.09-27.632L102.871,89.087z"/>
	</g>
	<g id="thenos">
		<g id="tm_2_" style="enable-background:new    ;">
			<path style="fill:#2671A8;" d="M123.912,68.257v-2.794h-1.044v-0.374h2.511v0.374h-1.048v2.794H123.912z"/>
			<path style="fill:#2671A8;" d="M125.797,68.257v-3.168h0.631l0.75,2.243c0.069,0.209,0.12,0.365,0.151,0.469
				c0.036-0.115,0.092-0.285,0.169-0.508l0.759-2.204h0.564v3.168h-0.404v-2.652l-0.921,2.652h-0.378l-0.916-2.697v2.697
				C126.202,68.257,125.797,68.257,125.797,68.257z"/>
		</g>
		<g id="thenos_5_" style="enable-background:new    ;">
			<path style="fill:#2671A8;" d="M25.669,80.082v1.081h-1.893c-3.413,0-5.61-1.521-5.61-5.306v-10.51H15.97v-1.081h2.197v-4.9
				h1.115v4.9h6.387v1.081h-6.387v10.51c0,3.075,1.757,4.225,4.461,4.225H25.669z"/>
			<path style="fill:#2671A8;" d="M28.71,81.163V56.56h1.115v10.983h0.068c1.284-2.264,3.379-3.954,6.86-3.954
				c4.258,0,7.029,2.062,7.029,6.725v10.848h-1.115V70.315c0-3.819-1.994-5.644-6.218-5.644c-3.92,0-6.624,3.413-6.624,5.779v10.713
				H28.71z"/>
			<path style="fill:#2671A8;" d="M55.781,63.59c5.407,0,8.956,3.717,8.956,9.125c0,0.203-0.034,0.372-0.034,0.541H48.008
				c0.237,4.529,3.244,7.503,7.773,7.503c3.65,0,6.353-1.926,7.367-5.069h1.149c-1.048,3.751-4.191,6.151-8.516,6.151
				c-5.407,0-8.956-3.717-8.956-9.125C46.825,67.307,50.373,63.59,55.781,63.59z M48.008,72.174h15.58
				c-0.203-4.495-3.278-7.503-7.807-7.503C51.252,64.671,48.244,67.679,48.008,72.174z"/>
			<path style="fill:#2671A8;" d="M68.116,81.163V64.266h1.115v3.278h0.068c1.284-2.264,3.379-3.954,6.86-3.954
				c4.258,0,7.029,2.062,7.029,6.725v10.848h-1.115V70.315c0-3.819-1.994-5.644-6.218-5.644c-3.92,0-6.624,3.413-6.624,5.779v10.713
				H68.116z"/>
			<path style="fill:#2671A8;" d="M95.186,63.59c5.407,0,8.956,3.717,8.956,9.125c0,5.407-3.549,9.125-8.956,9.125
				s-8.956-3.717-8.956-9.125C86.23,67.307,89.779,63.59,95.186,63.59z M95.186,80.758c4.731,0,7.84-3.211,7.84-8.043
				c0-4.799-3.109-8.043-7.84-8.043c-4.698,0-7.773,3.244-7.773,8.043C87.413,77.547,90.489,80.758,95.186,80.758z"/>
			<path style="fill:#2671A8;" d="M122.763,76.77c0,3.582-2.805,5.069-7.908,5.069c-5.34,0-8.009-1.791-8.009-5.644h1.183
				c0,3.244,2.4,4.562,6.827,4.562c4.225,0,6.725-0.946,6.725-3.988c0-7.165-14.025-0.608-14.025-8.618
				c0-3.109,3.042-4.562,7.199-4.562c4.326,0,7.198,1.893,7.198,5.272h-1.183c0-2.873-2.433-4.157-6.016-4.191
				c-3.481,0.034-6.016,1.081-6.016,3.481C108.738,74.708,122.763,68.22,122.763,76.77z"/>
		</g>
		<path id="box_2_" style="fill:#2671A8;" d="M40.4,108.774h-0.014h-0.014l-0.014-0.001h-0.014H40.33h-0.014h-0.014l-0.014-0.001
			h-0.014H40.26l-0.014-0.001h-0.014h-0.014l-0.014-0.001H40.19l-0.014-0.001h-0.014l-0.014-0.001l-0.012-0.001H40.13l-0.014-0.001
			l-0.014-0.001l-0.014-0.001h-0.014l-0.014-0.001l-0.014-0.001l-0.014-0.001l-0.012-0.001l-0.014-0.001l-0.014-0.001l-0.014-0.001
			l-0.014-0.001l-0.012-0.001l-0.014-0.001l-0.014-0.002l-0.014-0.001l-0.014-0.001l-0.012-0.001l-0.014-0.002l-0.014-0.001
			l-0.012-0.001l-0.014-0.002l-0.014-0.001l-0.012-0.002l-0.014-0.001l-0.014-0.002l-0.012-0.001l-0.014-0.002l-0.014-0.002
			l-0.012-0.001l-0.014-0.002l-0.012-0.002l-0.014-0.002l-0.014-0.001l-0.012-0.002l-0.014-0.002l-0.012-0.002l-0.014-0.002
			l-0.012-0.002l-0.014-0.002l-0.012-0.002l-0.014-0.002l-0.012-0.002l-0.014-0.002l-0.012-0.002l-0.012-0.002l-0.014-0.004
			l-0.012-0.002l-0.014-0.002l-0.012-0.002l-0.012-0.004l-0.014-0.002l-0.012-0.004l-0.014-0.002l-0.012-0.004l-0.012-0.002
			l-0.014-0.004l-0.012-0.002l-0.012-0.004l-0.012-0.002l-0.014-0.004l-0.012-0.004l-0.012-0.004l-0.012-0.002l-0.012-0.004
			l-0.014-0.004l-0.012-0.004l-0.012-0.002l-0.012-0.004l-0.012-0.004l-0.012-0.004l-0.012-0.004l-0.014-0.004l-0.012-0.004
			l-0.012-0.004l-0.012-0.005l-0.012-0.004l-0.012-0.004l-0.012-0.004l-0.012-0.004l-0.012-0.005l-0.012-0.004l-0.012-0.004
			l-0.012-0.005l-0.012-0.004l-0.012-0.004l-0.012-0.005l-0.012-0.004l-0.011-0.005l-0.012-0.004l-0.012-0.005l-0.012-0.004
			l-0.012-0.005l-0.012-0.005l-0.011-0.004l-0.012-0.005l-0.012-0.005l-0.012-0.005l-0.011-0.004l-0.012-0.005l-0.012-0.005
			l-0.012-0.005l-0.011-0.005l-0.012-0.005l-0.012-0.005l-0.011-0.005l-0.012-0.005l-0.012-0.005l-0.011-0.005l-0.012-0.005
			l-0.011-0.005l-0.012-0.005l-0.011-0.006l-0.012-0.005l-0.011-0.005l-0.012-0.005l-0.011-0.006l-0.012-0.005l-0.011-0.005
			l-0.012-0.006l-0.011-0.005l-0.012-0.006l-0.011-0.005l-0.011-0.005l-0.012-0.006l-0.011-0.006l-0.011-0.005l-0.012-0.006
			l-0.011-0.005l-0.011-0.006l-0.011-0.006l-0.012-0.005l-0.011-0.006l-0.011-0.006l-0.011-0.006l-0.011-0.006l-0.012-0.005
			l-0.011-0.006l-0.011-0.006l-0.011-0.006l-0.011-0.006l-0.011-0.006l-0.011-0.006l-0.011-0.006l-0.011-0.006l-0.011-0.006
			l-0.011-0.006l-0.011-0.007l-0.011-0.006l-0.011-0.006l-0.011-0.006l-0.011-0.006l-0.011-0.007l-0.011-0.006l-0.011-0.006
			l-0.01-0.007l-0.011-0.006l-0.011-0.006l-0.011-0.007l-0.011-0.006l-0.01-0.007l-0.011-0.006l-0.011-0.007l-0.01-0.007
			l-0.011-0.006l-0.011-0.007l-0.01-0.006l-0.011-0.007l-0.011-0.007l-0.01-0.006l-0.011-0.007l-0.01-0.007l-0.011-0.007
			l-0.01-0.007l-0.011-0.006l-0.01-0.007l-0.011-0.007l-0.01-0.007l-0.011-0.007l-0.01-0.007l-0.011-0.007l-0.01-0.007l-0.01-0.007
			l-0.011-0.007l-0.01-0.007l-0.01-0.007l-0.011-0.007l-0.01-0.007l-0.01-0.009l-0.01-0.007l-0.01-0.007l-0.011-0.007l-0.01-0.009
			l-0.01-0.007l-0.01-0.007l-0.01-0.009l-0.01-0.007l-0.01-0.007l-0.01-0.009l-0.01-0.007l-0.01-0.009l-0.01-0.007l-0.01-0.009
			l-0.01-0.007l-0.01-0.009l-0.01-0.007l-0.01-0.009l-0.01-0.009l-0.01-0.007l-0.009-0.009l-0.01-0.009l-0.01-0.007l-0.01-0.009
			l-0.01-0.009l-0.009-0.009l-0.01-0.007l-0.01-0.009l-0.009-0.009l-0.01-0.009l-0.01-0.009l-0.009-0.009l-0.01-0.009l-0.009-0.009
			l-0.01-0.009l-0.009-0.009l-0.01-0.009l-0.009-0.009l-0.01-0.009l-0.009-0.009l-0.01-0.009l-0.009-0.009l-0.009-0.009l-0.01-0.01
			l-0.009-0.009l-0.009-0.009l-0.01-0.009l-0.009-0.01l-0.009-0.009l-0.009-0.009l-0.009-0.01l-0.01-0.009l-0.009-0.009l-0.009-0.01
			l-0.009-0.009l-0.009-0.01l-0.009-0.009l-0.009-0.01l-0.009-0.009l-0.009-0.01l-0.009-0.009l-0.009-0.01l-0.009-0.009l-0.009-0.01
			l-0.009-0.01l-0.009-0.009l-0.007-0.01l-0.009-0.01l-0.009-0.009l-0.009-0.01l-0.009-0.01l-0.007-0.01l-0.009-0.009l-0.009-0.01
			l-0.007-0.01l-0.009-0.01l-0.009-0.01l-0.007-0.01l-0.009-0.01l-0.007-0.01l-0.009-0.01l-0.007-0.01l-0.009-0.01l-0.007-0.01
			l-0.009-0.01l-0.007-0.01l-0.007-0.01l-0.009-0.01l-0.007-0.01l-0.007-0.01l-0.009-0.01l-0.007-0.01l-0.007-0.011l-0.007-0.01
			l-0.007-0.01l-0.009-0.01l-0.007-0.011l-0.007-0.01l-0.007-0.01l-0.007-0.011l-0.007-0.01l-0.007-0.01l-0.007-0.011l-0.007-0.01
			l-0.007-0.011l-0.007-0.01l-0.007-0.01l-0.007-0.011l-0.007-0.01l-0.006-0.011l-0.007-0.01l-0.007-0.011l-0.007-0.011l-0.006-0.01
			l-0.007-0.011l-0.007-0.01l-0.006-0.011l-0.007-0.011l-0.006-0.01l-0.007-0.011l-0.007-0.011l-0.006-0.011l-0.007-0.01
			l-0.006-0.011l-0.006-0.011l-0.007-0.011l-0.006-0.01l-0.007-0.011l-0.006-0.011l-0.006-0.011l-0.006-0.011l-0.007-0.011
			l-0.006-0.011l-0.006-0.011l-0.006-0.011l-0.007-0.011l-0.006-0.011l-0.006-0.011l-0.006-0.011l-0.006-0.011l-0.006-0.011
			l-0.006-0.011l-0.006-0.011l-0.006-0.011l-0.006-0.011l-0.006-0.011l-0.005-0.011l-0.006-0.012l-0.006-0.011l-0.006-0.011
			l-0.005-0.011l-0.006-0.011l-0.006-0.012l-0.005-0.011l-0.006-0.011l-0.006-0.012l-0.005-0.011l-0.006-0.011l-0.005-0.012
			l-0.006-0.011l-0.005-0.011l-0.006-0.012l-0.005-0.011l-0.006-0.012l-0.005-0.011l-0.005-0.012l-0.006-0.011l-0.005-0.011
			l-0.005-0.012l-0.005-0.012l-0.006-0.011l-0.005-0.012l-0.005-0.011l-0.005-0.012l-0.005-0.011l-0.005-0.012l-0.005-0.012
			l-0.005-0.011l-0.005-0.012l-0.005-0.012l-0.005-0.011l-0.005-0.012l-0.005-0.012l-0.004-0.011l-0.005-0.012l-0.005-0.012
			l-0.005-0.012l-0.004-0.012l-0.005-0.011l-0.005-0.012l-0.004-0.012l-0.005-0.012l-0.005-0.012l-0.004-0.011l-0.005-0.012
			l-0.004-0.012l-0.005-0.012l-0.004-0.012l-0.004-0.012l-0.005-0.012l-0.004-0.012l-0.004-0.012l-0.005-0.012l-0.004-0.012
			l-0.004-0.012l-0.004-0.012l-0.004-0.012l-0.005-0.012l-0.004-0.012l-0.004-0.012l-0.004-0.012l-0.004-0.012l-0.004-0.014
			l-0.004-0.012l-0.002-0.012l-0.004-0.012l-0.004-0.012l-0.004-0.014l-0.004-0.012l-0.004-0.012l-0.002-0.012l-0.004-0.012
			l-0.004-0.014l-0.002-0.012l-0.004-0.012l-0.002-0.012l-0.004-0.014l-0.002-0.012l-0.004-0.012l-0.002-0.014l-0.004-0.012
			l-0.002-0.012l-0.002-0.014l-0.004-0.012l-0.002-0.014l-0.002-0.012l-0.004-0.012l-0.002-0.014l-0.002-0.012l-0.002-0.014
			l-0.002-0.012l-0.002-0.014l-0.002-0.012l-0.002-0.014l-0.002-0.012l-0.002-0.014l-0.002-0.012l-0.002-0.014l-0.002-0.012
			l-0.001-0.014l-0.002-0.012l-0.002-0.014l-0.002-0.014l-0.001-0.012l-0.002-0.014l-0.002-0.014l-0.001-0.012l-0.002-0.014
			l-0.001-0.014l-0.002-0.012l-0.001-0.014l-0.002-0.014l-0.001-0.012l-0.001-0.014l-0.002-0.014l-0.001-0.014l-0.001-0.012
			l-0.001-0.014l-0.002-0.014l-0.001-0.014l-0.001-0.012l-0.001-0.014l-0.001-0.014l-0.001-0.014l-0.001-0.014l-0.001-0.012
			l-0.001-0.014l-0.001-0.014l-0.001-0.014v-0.014l-0.001-0.014l-0.001-0.014v-0.012l-0.001-0.014l-0.001-0.014v-0.014l-0.001-0.014
			l-0.001-0.014v-0.014l-0.001-0.014v-0.014v-0.014l-0.001-0.014v-0.014v-0.014l-0.001-0.014v-0.014v-0.014v-0.014v-0.014v-0.014
			v-0.014v-0.014V87.518h1.852v17.069v0.007v0.007v0.009v0.007v0.007l0.001,0.007v0.007v0.009v0.007v0.007v0.007l0.001,0.007v0.009
			v0.007v0.007l0.001,0.007v0.007v0.007l0.001,0.007v0.009l0.001,0.007v0.007v0.007l0.001,0.007v0.007l0.001,0.007v0.009
			l0.001,0.007v0.007l0.001,0.007l0.001,0.007v0.007l0.001,0.007v0.007l0.001,0.007l0.001,0.007v0.007l0.001,0.007l0.001,0.007
			l0.001,0.007l0.001,0.007v0.007l0.001,0.007l0.001,0.007l0.001,0.007l0.001,0.007l0.001,0.007l0.001,0.007v0.007l0.001,0.007
			l0.001,0.007l0.001,0.007l0.001,0.007l0.001,0.007l0.001,0.007l0.001,0.007l0.002,0.007v0.007l0.002,0.007l0.001,0.007
			l0.001,0.006l0.001,0.007l0.001,0.007l0.002,0.007l0.001,0.007l0.001,0.007l0.001,0.007l0.001,0.007l0.002,0.006l0.001,0.007
			l0.001,0.007l0.002,0.007l0.001,0.007l0.001,0.007l0.002,0.007l0.001,0.006l0.002,0.007l0.001,0.007l0.001,0.007l0.002,0.006
			l0.002,0.007l0.001,0.007l0.001,0.007l0.002,0.007l0.002,0.006l0.001,0.007l0.002,0.007l0.001,0.006l0.002,0.007l0.002,0.007
			l0.001,0.006l0.002,0.007l0.002,0.007l0.002,0.007l0.001,0.006l0.002,0.007l0.002,0.007l0.001,0.006l0.002,0.007l0.002,0.006
			l0.002,0.007l0.002,0.007l0.002,0.006l0.002,0.007l0.002,0.006l0.001,0.007l0.002,0.007l0.002,0.006l0.002,0.007l0.002,0.006
			l0.002,0.007l0.002,0.006l0.002,0.007l0.002,0.006l0.002,0.007l0.004,0.007l0.002,0.006l0.002,0.006l0.002,0.007l0.002,0.007
			l0.002,0.006l0.002,0.006l0.004,0.007l0.002,0.006l0.002,0.007l0.002,0.006l0.004,0.007l0.002,0.006l0.002,0.006l0.004,0.007
			l0.002,0.006l0.002,0.006l0.002,0.007l0.004,0.006l0.002,0.007l0.004,0.006l0.002,0.006l0.002,0.007l0.004,0.006l0.002,0.006
			l0.004,0.006l0.002,0.007l0.004,0.006l0.002,0.006l0.004,0.007l0.004,0.006l0.002,0.006l0.004,0.006l0.002,0.007l0.004,0.006
			l0.004,0.006l0.002,0.006l0.004,0.006l0.004,0.007l0.002,0.006l0.004,0.006l0.004,0.006l0.002,0.006l0.004,0.006l0.004,0.006
			l0.004,0.007l0.004,0.006l0.004,0.006l0.002,0.006l0.004,0.006l0.004,0.006l0.004,0.006l0.004,0.006l0.004,0.006l0.004,0.006
			l0.004,0.006l0.002,0.006l0.005,0.006l0.002,0.006l0.005,0.006l0.004,0.006l0.002,0.006l0.005,0.006l0.004,0.006l0.004,0.006
			l0.004,0.006l0.004,0.006l0.004,0.006l0.004,0.006l0.004,0.005l0.004,0.006l0.005,0.006l0.004,0.006l0.004,0.006l0.004,0.006
			l0.004,0.006l0.005,0.005l0.004,0.006l0.004,0.006l0.005,0.006l0.004,0.006l0.004,0.005l0.004,0.006l0.005,0.006l0.004,0.006
			l0.004,0.005l0.005,0.006l0.004,0.006l0.005,0.005l0.004,0.006L38.488,106l0.004,0.005l0.004,0.006l0.005,0.006l0.004,0.005
			l0.005,0.006l0.004,0.005l0.005,0.006l0.005,0.006l0.004,0.005l0.005,0.006l0.004,0.005l0.005,0.006l0.004,0.005l0.005,0.006
			l0.005,0.005l0.004,0.006l0.005,0.005l0.005,0.006l0.004,0.005l0.005,0.006l0.005,0.005l0.005,0.006l0.004,0.005l0.005,0.005
			l0.005,0.006l0.005,0.005l0.004,0.006l0.005,0.005l0.005,0.005l0.005,0.006l0.005,0.005l0.005,0.005l0.004,0.005l0.005,0.006
			l0.005,0.005l0.005,0.005l0.005,0.006l0.005,0.005l0.005,0.005l0.005,0.005l0.005,0.006l0.005,0.005l0.005,0.005l0.005,0.005
			l0.005,0.005l0.005,0.005l0.005,0.005l0.005,0.006l0.005,0.005l0.005,0.005l0.005,0.005l0.005,0.005l0.005,0.005l0.006,0.005
			l0.005,0.005l0.005,0.005l0.005,0.005l0.005,0.005l0.005,0.005l0.006,0.005l0.005,0.005l0.005,0.005l0.005,0.005l0.006,0.005
			l0.005,0.005l0.005,0.005l0.005,0.005l0.006,0.004l0.005,0.005l0.005,0.005l0.006,0.005l0.005,0.005l0.005,0.005l0.006,0.004
			l0.005,0.005l0.005,0.005l0.006,0.005l0.005,0.004l0.006,0.005l0.005,0.005l0.006,0.005l0.005,0.004l0.006,0.005l0.005,0.005
			l0.005,0.004l0.006,0.005l0.006,0.005l0.005,0.004l0.006,0.005l0.005,0.004l0.006,0.005l0.005,0.004l0.006,0.005l0.005,0.005
			l0.006,0.004l0.006,0.005l0.005,0.004l0.006,0.004l0.006,0.005l0.005,0.004l0.006,0.005l0.006,0.004l0.005,0.005l0.006,0.004
			l0.006,0.004l0.005,0.005l0.006,0.004l0.006,0.005l0.006,0.004l0.005,0.004l0.006,0.004l0.006,0.005l0.006,0.004l0.005,0.004
			l0.006,0.005l0.006,0.004l0.006,0.004l0.006,0.004l0.006,0.004l0.006,0.004l0.005,0.005l0.006,0.004l0.006,0.004l0.006,0.004
			l0.006,0.004l0.006,0.004l0.006,0.004l0.006,0.004l0.006,0.004l0.006,0.004l0.006,0.004l0.006,0.004l0.006,0.004l0.006,0.004
			l0.006,0.004l0.006,0.004l0.006,0.004l0.006,0.004l0.006,0.004l0.006,0.004l0.006,0.004l0.006,0.004l0.006,0.002l0.006,0.004
			l0.006,0.004l0.006,0.004l0.007,0.004l0.006,0.002l0.006,0.004l0.006,0.004l0.006,0.004l0.006,0.002l0.007,0.004l0.006,0.004
			l0.006,0.002l0.006,0.004l0.006,0.002l0.007,0.004l0.006,0.004l0.006,0.002l0.006,0.004l0.006,0.002l0.007,0.004l0.006,0.002
			l0.006,0.004l0.007,0.002l0.006,0.004l0.006,0.002l0.007,0.004l0.006,0.002l0.006,0.004l0.007,0.002l0.006,0.002l0.006,0.004
			l0.007,0.002l0.006,0.002l0.007,0.004l0.006,0.002l0.006,0.002l0.007,0.004l0.006,0.002l0.007,0.002l0.006,0.002l0.007,0.004
			l0.006,0.002l0.006,0.002l0.007,0.002l0.006,0.002l0.007,0.002l0.006,0.002l0.007,0.002l0.006,0.004l0.007,0.002l0.006,0.002
			l0.007,0.002l0.007,0.002l0.006,0.002l0.007,0.002l0.006,0.001l0.007,0.002l0.006,0.002l0.007,0.002l0.007,0.002l0.006,0.002
			l0.007,0.002l0.006,0.002l0.007,0.002l0.007,0.001l0.006,0.002l0.007,0.002l0.007,0.002l0.006,0.001l0.007,0.002l0.007,0.002
			l0.006,0.001l0.007,0.002l0.007,0.002l0.006,0.002l0.007,0.001l0.007,0.002l0.007,0.001l0.006,0.002l0.007,0.001l0.007,0.002
			l0.007,0.001l0.006,0.002l0.007,0.001l0.007,0.002l0.007,0.001l0.007,0.002l0.006,0.001l0.007,0.002l0.007,0.001l0.007,0.001
			l0.007,0.002l0.007,0.001l0.006,0.001l0.007,0.002l0.007,0.001l0.007,0.001l0.007,0.001l0.007,0.002l0.007,0.001l0.007,0.001
			l0.006,0.001l0.007,0.001l0.007,0.001l0.007,0.001l0.007,0.001l0.007,0.001l0.007,0.002l0.007,0.001l0.007,0.001l0.007,0.001
			l0.007,0.001l0.007,0.001l0.007,0.001h0.007l0.007,0.001l0.007,0.001l0.006,0.001l0.009,0.001l0.007,0.001l0.007,0.001h0.007
			l0.007,0.001l0.007,0.001l0.007,0.001h0.007l0.007,0.001l0.007,0.001h0.007l0.007,0.001l0.007,0.001h0.007l0.007,0.001h0.007
			l0.007,0.001h0.007l0.007,0.001h0.009l0.007,0.001h0.007l0.007,0.001h0.007l0.007,0.001h0.007h0.009l0.007,0.001h0.007h0.007
			l0.007,0.001h0.007h0.009l0.007,0.001h0.007h0.007h0.007h0.007h0.009h0.007l0.007,0.001h0.007h0.007h0.009h0.007h58.927h0.007
			h0.007h0.007h0.009l0.007-0.001h0.007h0.007h0.007H99.4h0.007h0.007l0.007-0.001h0.007h0.007l0.007-0.001h0.009h0.007l0.007-0.001
			h0.007h0.007l0.007-0.001h0.009l0.007-0.001h0.007l0.007-0.001h0.007l0.007-0.001h0.007l0.007-0.001h0.007l0.007-0.001h0.009
			l0.007-0.001l0.007-0.001h0.007l0.007-0.001l0.007-0.001h0.007l0.007-0.001l0.007-0.001l0.007-0.001h0.007l0.007-0.001
			l0.007-0.001l0.007-0.001l0.007-0.001l0.007-0.001l0.007-0.001H99.7l0.007-0.001l0.007-0.001l0.007-0.001l0.007-0.001l0.007-0.001
			l0.007-0.001l0.007-0.002l0.007-0.001l0.006-0.001l0.007-0.001l0.007-0.001l0.007-0.001l0.007-0.001l0.007-0.001l0.007-0.001
			l0.007-0.002l0.007-0.001l0.007-0.001l0.006-0.001l0.007-0.002l0.007-0.001l0.007-0.001l0.007-0.002l0.006-0.001l0.007-0.001
			l0.007-0.002l0.007-0.001l0.007-0.002l0.006-0.001l0.007-0.002l0.007-0.001l0.007-0.002l0.007-0.001l0.006-0.002l0.007-0.001
			l0.007-0.002l0.007-0.001l0.006-0.002l0.007-0.001l0.007-0.002l0.006-0.002l0.007-0.002l0.007-0.001l0.007-0.002l0.006-0.002
			l0.007-0.001l0.007-0.002l0.006-0.002l0.007-0.002l0.007-0.001l0.006-0.002l0.007-0.002l0.006-0.002l0.007-0.002l0.007-0.002
			l0.006-0.002l0.007-0.002l0.006-0.002l0.007-0.001l0.007-0.002l0.006-0.002l0.007-0.002l0.006-0.002l0.007-0.002l0.006-0.002
			l0.007-0.004l0.006-0.002l0.007-0.002l0.006-0.002l0.007-0.002l0.006-0.002l0.007-0.002l0.006-0.002l0.007-0.004l0.006-0.002
			l0.006-0.002l0.007-0.002l0.006-0.004l0.007-0.002l0.006-0.002l0.006-0.004l0.007-0.002l0.006-0.002l0.007-0.004l0.006-0.002
			l0.006-0.002l0.007-0.004l0.006-0.002l0.006-0.004l0.007-0.002l0.006-0.004l0.006-0.002l0.007-0.004l0.006-0.002l0.006-0.004
			l0.006-0.002l0.007-0.004l0.006-0.002l0.006-0.004l0.006-0.004l0.007-0.002l0.006-0.004l0.006-0.002l0.006-0.004l0.006-0.004
			l0.006-0.002l0.007-0.004l0.006-0.004l0.006-0.004l0.006-0.002l0.006-0.004l0.006-0.004l0.006-0.004l0.006-0.004l0.006-0.002
			l0.007-0.004l0.006-0.004l0.006-0.004l0.006-0.004l0.006-0.004l0.006-0.004l0.006-0.004l0.006-0.004l0.006-0.004l0.006-0.004
			l0.006-0.004l0.006-0.004l0.006-0.004l0.006-0.004l0.006-0.004l0.006-0.004l0.006-0.004l0.006-0.004l0.005-0.004l0.006-0.004
			l0.006-0.004l0.006-0.005l0.006-0.004l0.006-0.004l0.006-0.004l0.005-0.004l0.006-0.004l0.006-0.005l0.006-0.004l0.006-0.004
			l0.005-0.005l0.006-0.004l0.006-0.004l0.006-0.004l0.006-0.005l0.005-0.004l0.006-0.005l0.006-0.004l0.005-0.004l0.006-0.005
			l0.006-0.004l0.005-0.005l0.006-0.004l0.006-0.005l0.005-0.004l0.006-0.004l0.006-0.005l0.005-0.004l0.006-0.005l0.005-0.005
			l0.006-0.004l0.005-0.005l0.006-0.004l0.005-0.005l0.006-0.004l0.006-0.005l0.005-0.005l0.006-0.004l0.005-0.005l0.005-0.005
			l0.006-0.004l0.005-0.005l0.006-0.005l0.005-0.005l0.006-0.004l0.005-0.005l0.006-0.005l0.005-0.005l0.005-0.004l0.006-0.005
			l0.005-0.005l0.005-0.005l0.006-0.005l0.005-0.005l0.005-0.004l0.006-0.005l0.005-0.005l0.005-0.005l0.005-0.005l0.006-0.005
			l0.005-0.005l0.005-0.005l0.005-0.005l0.005-0.005l0.006-0.005l0.005-0.005l0.005-0.005l0.005-0.005l0.005-0.005l0.005-0.005
			l0.005-0.005l0.005-0.005l0.006-0.005l0.005-0.005l0.005-0.006l0.005-0.005l0.005-0.005l0.005-0.005l0.005-0.005l0.005-0.005
			l0.005-0.005l0.005-0.006l0.005-0.005l0.005-0.005l0.005-0.005l0.005-0.006l0.004-0.005l0.005-0.005l0.005-0.006l0.005-0.005
			l0.005-0.005l0.005-0.005l0.005-0.006l0.004-0.005l0.005-0.005l0.005-0.006l0.005-0.005l0.005-0.006l0.004-0.005l0.005-0.005
			l0.005-0.006l0.005-0.005l0.004-0.006l0.005-0.005l0.004-0.006l0.005-0.005l0.005-0.006l0.005-0.005l0.004-0.006l0.005-0.005
			l0.004-0.006l0.005-0.005l0.004-0.006l0.005-0.005l0.005-0.006l0.004-0.006l0.005-0.005l0.004-0.006l0.005-0.005l0.004-0.006
			l0.005-0.006l0.004-0.005l0.005-0.006l0.004-0.006l0.004-0.005l0.005-0.006l0.004-0.006l0.004-0.005l0.005-0.006l0.004-0.006
			l0.005-0.006l0.004-0.005l0.004-0.006l0.004-0.006l0.005-0.006l0.004-0.006l0.004-0.005l0.004-0.006l0.005-0.006l0.004-0.006
			l0.004-0.006l0.004-0.006l0.004-0.006l0.004-0.005l0.005-0.006l0.004-0.006l0.004-0.006l0.004-0.006l0.004-0.006l0.004-0.006
			l0.004-0.006l0.004-0.006l0.004-0.006l0.004-0.006l0.004-0.006l0.004-0.006l0.004-0.006l0.004-0.006l0.004-0.006l0.004-0.006
			l0.004-0.006l0.002-0.006l0.004-0.006l0.004-0.006l0.004-0.006l0.004-0.006l0.004-0.006l0.002-0.007l0.004-0.006l0.004-0.006
			l0.004-0.006l0.004-0.006l0.002-0.006l0.004-0.006l0.004-0.007l0.002-0.006l0.004-0.006l0.004-0.006l0.002-0.006l0.004-0.007
			l0.002-0.006l0.004-0.006l0.002-0.006l0.004-0.007l0.004-0.006l0.002-0.006l0.004-0.007l0.002-0.006l0.004-0.006l0.002-0.006
			l0.004-0.007l0.002-0.006l0.002-0.006l0.004-0.007l0.002-0.006l0.002-0.007l0.004-0.006l0.002-0.006l0.002-0.007l0.004-0.006
			l0.002-0.006l0.002-0.007l0.004-0.006l0.002-0.007l0.002-0.006l0.002-0.007l0.002-0.006l0.004-0.006l0.002-0.007l0.002-0.007
			l0.002-0.006l0.002-0.006l0.002-0.007l0.002-0.007l0.002-0.006l0.002-0.007l0.002-0.006l0.002-0.007l0.002-0.006l0.002-0.007
			l0.002-0.006l0.002-0.007l0.002-0.007l0.002-0.006l0.002-0.007l0.002-0.006l0.002-0.007l0.001-0.007l0.002-0.006l0.002-0.007
			l0.002-0.006l0.002-0.007l0.001-0.007l0.002-0.006l0.002-0.007l0.002-0.007l0.001-0.007l0.002-0.006l0.001-0.007l0.002-0.007
			l0.002-0.006l0.001-0.007l0.002-0.007l0.002-0.006l0.001-0.007l0.002-0.007l0.001-0.007l0.002-0.007l0.001-0.006l0.001-0.007
			l0.002-0.007l0.001-0.007l0.002-0.006l0.001-0.007l0.002-0.007l0.001-0.007l0.001-0.007l0.002-0.007l0.001-0.007l0.001-0.006
			l0.001-0.007l0.002-0.007l0.001-0.007l0.001-0.007l0.001-0.007l0.001-0.007l0.002-0.007l0.001-0.006l0.001-0.007l0.001-0.007
			l0.001-0.007l0.001-0.007l0.001-0.007l0.001-0.007l0.001-0.007l0.001-0.007l0.001-0.007l0.001-0.007l0.001-0.007l0.001-0.007
			l0.001-0.007l0.001-0.007l0.001-0.007l0.001-0.007v-0.007l0.001-0.007l0.001-0.007l0.001-0.007l0.001-0.007v-0.007l0.001-0.007
			l0.001-0.007V104.9l0.001-0.007l0.001-0.007v-0.007l0.001-0.007l0.001-0.007v-0.007l0.001-0.007v-0.007l0.001-0.009v-0.007
			l0.001-0.007v-0.007l0.001-0.007V104.8v-0.007l0.001-0.009v-0.007l0.001-0.007v-0.007v-0.007v-0.007l0.001-0.007v-0.009v-0.007
			v-0.007l0.001-0.007v-0.007v-0.009v-0.007v-0.007v-0.007v-0.007v-0.009v-0.007v-0.007V87.518h1.841v17.025v0.014v0.014v0.014
			v0.014v0.014v0.014l-0.001,0.014v0.014v0.014v0.014l-0.001,0.014v0.014l-0.001,0.014v0.014l-0.001,0.014v0.014l-0.001,0.014v0.014
			l-0.001,0.014l-0.001,0.014v0.012l-0.001,0.014l-0.001,0.014l-0.001,0.014l-0.001,0.014v0.014l-0.001,0.014l-0.001,0.012
			l-0.001,0.014l-0.001,0.014l-0.001,0.014l-0.001,0.014l-0.002,0.012l-0.001,0.014l-0.001,0.014l-0.001,0.014l-0.001,0.012
			l-0.002,0.014l-0.001,0.014l-0.001,0.014l-0.002,0.012l-0.001,0.014l-0.002,0.014l-0.001,0.012l-0.001,0.014l-0.002,0.014
			l-0.002,0.012l-0.001,0.014l-0.002,0.014l-0.002,0.012l-0.001,0.014l-0.002,0.014l-0.002,0.012l-0.002,0.014l-0.001,0.012
			l-0.002,0.014l-0.002,0.012l-0.002,0.014l-0.002,0.012l-0.002,0.014l-0.002,0.012l-0.002,0.014l-0.002,0.012l-0.002,0.014
			l-0.004,0.012l-0.002,0.014l-0.002,0.012l-0.002,0.012l-0.002,0.014l-0.004,0.012l-0.002,0.014l-0.002,0.012l-0.004,0.012
			l-0.002,0.014l-0.004,0.012l-0.002,0.012l-0.004,0.014l-0.004,0.012l-0.002,0.012l-0.004,0.012l-0.002,0.014l-0.004,0.012
			l-0.004,0.012l-0.002,0.012l-0.004,0.012l-0.004,0.014l-0.004,0.012l-0.004,0.012l-0.004,0.012l-0.004,0.012l-0.004,0.014
			l-0.004,0.012l-0.004,0.012l-0.004,0.012l-0.004,0.012l-0.004,0.012l-0.004,0.012l-0.004,0.012l-0.004,0.012l-0.005,0.012
			l-0.004,0.012l-0.004,0.012l-0.004,0.012l-0.005,0.012l-0.004,0.012l-0.005,0.012l-0.004,0.012l-0.005,0.012l-0.004,0.012
			l-0.005,0.011l-0.004,0.012l-0.005,0.012l-0.004,0.012l-0.005,0.012l-0.005,0.011l-0.004,0.012l-0.005,0.012l-0.005,0.012
			l-0.005,0.012l-0.004,0.011l-0.005,0.012l-0.005,0.012l-0.005,0.011l-0.005,0.012l-0.005,0.012l-0.005,0.011l-0.005,0.012
			l-0.005,0.012l-0.005,0.011l-0.005,0.012l-0.006,0.011l-0.005,0.012l-0.005,0.011l-0.005,0.012l-0.005,0.012l-0.006,0.011
			l-0.005,0.011l-0.005,0.012l-0.006,0.011l-0.005,0.012l-0.005,0.011l-0.006,0.012l-0.005,0.011l-0.006,0.011l-0.005,0.012
			l-0.006,0.011l-0.005,0.011l-0.006,0.012l-0.006,0.011l-0.005,0.011l-0.006,0.012l-0.006,0.011l-0.006,0.011l-0.005,0.011
			l-0.006,0.011l-0.006,0.012l-0.006,0.011l-0.006,0.011l-0.006,0.011l-0.005,0.011l-0.006,0.011l-0.006,0.011l-0.006,0.011
			l-0.007,0.011l-0.006,0.011l-0.006,0.011l-0.006,0.011l-0.006,0.011l-0.006,0.011l-0.006,0.011l-0.007,0.011l-0.006,0.011
			l-0.006,0.011l-0.006,0.011l-0.007,0.011l-0.006,0.011l-0.006,0.01l-0.007,0.011l-0.006,0.011l-0.007,0.011l-0.006,0.01
			l-0.007,0.011l-0.006,0.011l-0.007,0.011l-0.006,0.01l-0.007,0.011l-0.007,0.011l-0.006,0.01l-0.007,0.011l-0.007,0.01
			l-0.006,0.011l-0.007,0.011l-0.007,0.01l-0.007,0.011l-0.007,0.01l-0.006,0.011l-0.007,0.01l-0.007,0.01l-0.007,0.011l-0.007,0.01
			l-0.007,0.011l-0.007,0.01l-0.007,0.01l-0.007,0.011l-0.007,0.01l-0.007,0.01l-0.009,0.011l-0.007,0.01l-0.007,0.01l-0.007,0.01
			l-0.007,0.011l-0.009,0.01l-0.007,0.01l-0.007,0.01l-0.007,0.01l-0.009,0.01l-0.007,0.01l-0.009,0.01l-0.007,0.01l-0.009,0.01
			l-0.007,0.01l-0.007,0.01l-0.009,0.01l-0.007,0.01l-0.009,0.01l-0.009,0.01l-0.007,0.01l-0.009,0.01l-0.009,0.01l-0.007,0.01
			l-0.009,0.009l-0.009,0.01l-0.007,0.01l-0.009,0.01l-0.009,0.009l-0.009,0.01l-0.009,0.01l-0.007,0.009l-0.009,0.01l-0.009,0.01
			l-0.009,0.009l-0.009,0.01l-0.009,0.009l-0.009,0.01l-0.009,0.009l-0.009,0.01l-0.009,0.009l-0.009,0.01l-0.009,0.009l-0.009,0.01
			l-0.01,0.009l-0.009,0.009l-0.009,0.01l-0.009,0.009l-0.009,0.009l-0.01,0.01l-0.009,0.009l-0.009,0.009l-0.01,0.009l-0.009,0.01
			l-0.009,0.009l-0.01,0.009l-0.009,0.009l-0.009,0.009l-0.01,0.009l-0.009,0.009l-0.01,0.009l-0.009,0.009l-0.01,0.009
			l-0.009,0.009l-0.01,0.009l-0.01,0.009l-0.009,0.009l-0.01,0.009l-0.01,0.009l-0.009,0.009l-0.01,0.007l-0.01,0.009l-0.009,0.009
			l-0.01,0.009l-0.01,0.007l-0.01,0.009l-0.01,0.009l-0.009,0.007l-0.01,0.009l-0.01,0.009l-0.01,0.007l-0.01,0.009l-0.01,0.007
			l-0.01,0.009l-0.01,0.007l-0.01,0.009l-0.01,0.007l-0.01,0.009l-0.01,0.007l-0.01,0.007l-0.01,0.009l-0.01,0.007l-0.01,0.007
			l-0.011,0.009l-0.01,0.007l-0.01,0.007l-0.01,0.007l-0.01,0.009l-0.011,0.007l-0.01,0.007l-0.01,0.007l-0.011,0.007l-0.01,0.007
			l-0.01,0.007l-0.011,0.007l-0.01,0.007l-0.01,0.007l-0.011,0.007l-0.01,0.007l-0.011,0.007l-0.01,0.007l-0.011,0.006l-0.01,0.007
			l-0.011,0.007l-0.01,0.007l-0.011,0.007l-0.01,0.006l-0.011,0.007l-0.011,0.007l-0.01,0.006l-0.011,0.007l-0.011,0.006
			l-0.01,0.007l-0.011,0.007l-0.011,0.006l-0.011,0.007l-0.01,0.006l-0.011,0.007l-0.011,0.006l-0.011,0.006l-0.011,0.007
			l-0.011,0.006l-0.01,0.006l-0.011,0.007l-0.011,0.006l-0.011,0.006l-0.011,0.006l-0.011,0.006l-0.011,0.007l-0.011,0.006
			l-0.011,0.006l-0.011,0.006l-0.011,0.006l-0.011,0.006l-0.011,0.006l-0.011,0.006l-0.011,0.006l-0.011,0.006l-0.012,0.006
			l-0.011,0.005l-0.011,0.006l-0.011,0.006l-0.011,0.006l-0.012,0.006l-0.011,0.005l-0.011,0.006l-0.011,0.006l-0.012,0.005
			l-0.011,0.006l-0.011,0.005l-0.012,0.006l-0.011,0.006l-0.011,0.005l-0.012,0.005l-0.011,0.006l-0.011,0.005l-0.012,0.006
			l-0.011,0.005l-0.012,0.005l-0.011,0.006l-0.012,0.005l-0.011,0.005l-0.012,0.005l-0.011,0.006l-0.012,0.005l-0.012,0.005
			l-0.011,0.005l-0.012,0.005l-0.011,0.005l-0.012,0.005l-0.012,0.005l-0.011,0.005l-0.012,0.005l-0.012,0.005l-0.011,0.005
			l-0.012,0.005l-0.012,0.005l-0.011,0.004l-0.012,0.005l-0.012,0.005l-0.012,0.005l-0.012,0.004l-0.011,0.005l-0.012,0.005
			l-0.012,0.004l-0.012,0.005l-0.012,0.004l-0.012,0.005l-0.012,0.004l-0.011,0.005l-0.012,0.004l-0.012,0.004l-0.012,0.005
			l-0.012,0.004l-0.012,0.004l-0.012,0.005l-0.012,0.004l-0.012,0.004l-0.012,0.004l-0.012,0.004l-0.012,0.005l-0.014,0.004
			l-0.012,0.004l-0.012,0.004l-0.012,0.004l-0.012,0.004l-0.012,0.004l-0.012,0.004l-0.012,0.002l-0.014,0.004l-0.012,0.004
			l-0.012,0.004l-0.012,0.002l-0.012,0.004l-0.014,0.004l-0.012,0.004l-0.012,0.002l-0.012,0.004l-0.014,0.002l-0.012,0.004
			l-0.012,0.002l-0.014,0.004l-0.012,0.002l-0.012,0.004l-0.014,0.002l-0.012,0.004l-0.014,0.002l-0.012,0.002l-0.012,0.002
			l-0.014,0.004l-0.012,0.002l-0.014,0.002l-0.012,0.002l-0.014,0.002l-0.012,0.002l-0.014,0.002l-0.012,0.002l-0.014,0.002
			l-0.012,0.002l-0.014,0.002l-0.012,0.002l-0.014,0.002l-0.012,0.001l-0.014,0.002l-0.012,0.002l-0.014,0.002l-0.014,0.001
			l-0.012,0.002l-0.014,0.002l-0.014,0.001l-0.012,0.002l-0.014,0.001l-0.012,0.002l-0.014,0.001l-0.014,0.002l-0.014,0.001
			l-0.012,0.001l-0.014,0.002l-0.014,0.001l-0.012,0.001l-0.014,0.001l-0.014,0.002l-0.014,0.001l-0.014,0.001l-0.012,0.001
			l-0.014,0.001l-0.014,0.001l-0.014,0.001l-0.014,0.001l-0.014,0.001l-0.012,0.001l-0.014,0.001h-0.014l-0.014,0.001l-0.014,0.001
			l-0.014,0.001h-0.014l-0.014,0.001l-0.014,0.001h0.025l-0.014,0.001h-0.014l-0.014,0.001h-0.014H99.47l-0.014,0.001h-0.014h-0.014
			l-0.014,0.001H99.4h-0.01h-0.014h-0.015l-0.012,0.001h-0.015H99.32H40.4V108.774z M36.171,54.214V38.831v-0.014v-0.014V38.79
			v-0.014v-0.014V38.75v-0.014l0.001-0.014v-0.014v-0.014l0.001-0.014v-0.014v-0.014l0.001-0.014v-0.014l0.001-0.014l0.001-0.014
			v-0.014l0.001-0.014l0.001-0.014V38.54l0.001-0.012l0.001-0.014V38.5l0.001-0.014l0.001-0.014l0.001-0.014l0.001-0.014
			l0.001-0.012l0.001-0.014l0.001-0.014l0.001-0.014l0.001-0.014l0.001-0.012l0.002-0.014l0.001-0.014l0.001-0.014L36.2,38.32
			l0.002-0.014l0.001-0.014l0.001-0.012l0.002-0.014l0.001-0.014l0.002-0.014l0.001-0.012l0.002-0.014l0.001-0.014l0.002-0.012
			l0.002-0.014l0.001-0.012l0.002-0.014l0.002-0.014l0.002-0.012l0.001-0.014l0.002-0.012l0.002-0.014l0.002-0.012l0.002-0.014
			l0.002-0.012l0.002-0.014l0.002-0.012l0.002-0.014l0.002-0.012l0.002-0.014l0.002-0.012l0.002-0.014l0.004-0.012l0.002-0.014
			l0.002-0.012l0.004-0.012l0.002-0.014l0.002-0.012l0.004-0.012l0.002-0.014l0.004-0.012l0.002-0.012l0.004-0.014l0.002-0.012
			l0.004-0.012l0.002-0.014l0.004-0.012l0.004-0.012l0.002-0.012l0.004-0.012l0.004-0.014l0.004-0.012l0.004-0.012l0.004-0.012
			l0.002-0.012l0.004-0.014l0.004-0.012l0.004-0.012l0.004-0.012l0.004-0.012l0.004-0.012l0.005-0.012l0.004-0.012l0.004-0.012
			l0.004-0.012l0.004-0.012l0.005-0.012l0.004-0.012l0.004-0.012l0.005-0.012l0.004-0.012l0.004-0.012l0.005-0.012l0.004-0.012
			l0.005-0.012l0.004-0.012l0.005-0.011l0.005-0.012l0.004-0.012l0.005-0.012l0.005-0.012l0.004-0.011l0.005-0.012l0.005-0.012
			l0.005-0.012l0.004-0.011l0.005-0.012l0.005-0.012l0.005-0.011l0.005-0.012l0.005-0.012l0.005-0.011l0.005-0.012l0.005-0.012
			l0.005-0.011l0.005-0.012l0.005-0.011l0.005-0.012l0.006-0.012l0.005-0.011l0.005-0.012l0.005-0.011l0.006-0.012l0.005-0.011
			l0.005-0.011l0.006-0.012l0.005-0.011l0.006-0.012l0.005-0.011l0.006-0.011l0.005-0.012l0.006-0.011l0.005-0.011l0.006-0.012
			l0.006-0.011l0.005-0.011l0.006-0.012l0.006-0.011l0.005-0.011l0.006-0.011l0.006-0.011l0.006-0.012l0.005-0.011l0.006-0.011
			l0.006-0.011l0.006-0.011l0.006-0.011l0.006-0.011l0.006-0.011l0.006-0.011l0.006-0.012l0.006-0.01l0.006-0.011l0.007-0.012
			l0.006-0.01l0.006-0.011l0.006-0.011l0.007-0.011l0.006-0.011l0.006-0.011l0.006-0.011l0.007-0.011l0.006-0.01l0.007-0.011
			l0.006-0.011l0.006-0.011l0.007-0.011l0.006-0.01l0.007-0.011l0.007-0.011l0.006-0.01l0.007-0.011l0.006-0.011l0.007-0.01
			l0.007-0.011l0.006-0.01l0.007-0.011l0.007-0.011l0.007-0.01l0.006-0.011l0.007-0.01l0.007-0.011l0.007-0.01l0.007-0.011
			l0.007-0.01l0.007-0.01l0.007-0.011l0.007-0.01l0.007-0.011l0.007-0.01l0.007-0.01l0.007-0.011l0.007-0.01l0.009-0.01l0.007-0.01
			l0.007-0.01l0.007-0.011l0.007-0.01l0.009-0.01l0.007-0.01l0.007-0.01l0.009-0.01l0.007-0.01l0.007-0.011l0.009-0.009l0.007-0.01
			l0.009-0.011l0.007-0.009l0.009-0.01l0.007-0.01l0.009-0.01l0.007-0.01l0.009-0.01l0.009-0.01l0.007-0.01l0.009-0.01l0.009-0.009
			l0.007-0.01l0.009-0.01l0.009-0.01l0.009-0.009l0.009-0.01l0.007-0.01l0.009-0.009l0.009-0.01l0.009-0.01l0.009-0.009l0.009-0.01
			l0.009-0.01l0.009-0.009l0.009-0.009l0.009-0.01l0.009-0.01l0.009-0.009l0.009-0.009l0.009-0.01l0.009-0.009l0.01-0.009
			l0.009-0.01l0.009-0.009l0.009-0.009l0.009-0.01l0.01-0.009l0.009-0.009l0.009-0.009l0.01-0.01l0.009-0.009l0.009-0.009
			l0.01-0.009l0.009-0.009l0.01-0.009l0.009-0.009l0.01-0.009l0.009-0.009l0.01-0.009l0.009-0.009l0.01-0.009l0.009-0.009
			l0.01-0.009l0.01-0.009l0.009-0.009l0.01-0.009l0.01-0.007l0.009-0.009l0.01-0.009l0.01-0.009l0.01-0.007l0.01-0.009l0.009-0.009
			l0.01-0.009l0.01-0.007l0.01-0.009l0.01-0.007l0.01-0.009l0.01-0.009l0.01-0.007l0.01-0.007l0.01-0.009l0.01-0.007l0.01-0.009
			l0.01-0.007l0.01-0.009l0.01-0.007l0.01-0.007l0.01-0.009l0.01-0.007l0.011-0.007l0.01-0.007l0.01-0.007l0.01-0.009l0.01-0.007
			l0.011-0.007l0.01-0.007l0.01-0.007l0.011-0.007l0.01-0.007l0.01-0.007l0.011-0.007l0.01-0.007l0.011-0.007l0.01-0.007
			l0.011-0.007l0.01-0.007l0.011-0.007l0.01-0.006l0.011-0.007l0.01-0.007l0.011-0.007l0.01-0.007l0.011-0.006l0.011-0.007
			l0.01-0.006l0.011-0.007l0.011-0.007l0.01-0.006l0.011-0.007l0.011-0.006l0.01-0.007l0.011-0.006l0.011-0.007l0.011-0.006
			l0.011-0.006l0.01-0.007l0.011-0.006l0.011-0.006l0.011-0.007l0.011-0.006l0.011-0.006l0.011-0.006l0.011-0.006l0.011-0.007
			l0.011-0.006l0.011-0.006l0.011-0.006l0.011-0.006l0.011-0.006l0.011-0.006l0.011-0.006l0.011-0.006l0.011-0.006l0.011-0.006
			l0.012-0.006l0.011-0.005l0.011-0.006l0.011-0.006l0.011-0.006l0.012-0.005l0.011-0.006l0.011-0.006l0.011-0.005l0.012-0.006
			l0.011-0.006l0.011-0.005l0.012-0.006l0.011-0.005l0.011-0.006l0.012-0.005l0.011-0.006l0.012-0.005l0.011-0.005l0.012-0.005
			l0.011-0.006l0.012-0.005l0.011-0.005l0.012-0.006l0.011-0.005l0.012-0.005l0.011-0.005l0.012-0.005l0.011-0.005l0.012-0.005
			l0.012-0.005l0.011-0.005l0.012-0.005l0.012-0.005l0.011-0.005l0.012-0.005l0.012-0.005l0.012-0.005l0.011-0.004l0.012-0.005
			l0.012-0.005l0.012-0.005l0.011-0.004l0.012-0.005l0.012-0.005l0.012-0.004l0.012-0.005l0.012-0.004l0.011-0.005l0.012-0.004
			l0.012-0.005l0.012-0.004l0.012-0.004l0.012-0.005l0.012-0.004l0.012-0.005l0.012-0.004l0.012-0.004l0.012-0.004l0.012-0.004
			l0.012-0.004l0.012-0.005l0.012-0.004l0.012-0.004l0.014-0.004l0.012-0.004l0.012-0.004l0.012-0.004l0.012-0.004l0.012-0.002
			l0.012-0.004l0.014-0.004l0.012-0.004l0.012-0.004l0.012-0.002l0.012-0.004l0.014-0.004l0.012-0.002l0.012-0.004l0.012-0.004
			l0.014-0.002l0.012-0.004l0.012-0.002l0.014-0.002l0.012-0.004l0.014-0.002l0.012-0.004l0.012-0.002l0.014-0.002l0.012-0.004
			l0.014-0.002l0.012-0.002l0.012-0.002l0.014-0.002l0.012-0.002l0.014-0.002l0.012-0.002l0.014-0.002l0.012-0.002l0.014-0.002
			l0.012-0.002l0.014-0.002l0.012-0.002l0.014-0.002l0.014-0.001l0.012-0.002l0.014-0.002l0.012-0.001l0.014-0.002l0.014-0.002
			l0.012-0.001l0.014-0.002l0.014-0.001l0.012-0.002l0.014-0.001l0.014-0.002l0.012-0.001l0.014-0.002l0.014-0.001l0.012-0.001
			l0.014-0.001l0.014-0.002l0.014-0.001l0.014-0.001l0.012-0.001l0.014-0.001l0.014-0.001l0.014-0.001l0.014-0.001l0.012-0.001
			l0.014-0.001l0.014-0.001l0.014-0.001h0.014l0.014-0.001l0.014-0.001l0.014-0.001h0.014l0.012-0.001l0.014-0.001h0.014
			l0.014-0.001h0.014l0.014-0.001h0.014l0.014-0.001h0.014h0.014l0.014-0.001h0.014h0.014h0.014h0.014l0.014-0.001h0.014h0.014H40.4
			h58.921h0.014h0.015h0.012l0.015,0.001h0.014h0.014h0.014h0.014l0.014,0.001h0.014h0.014l0.014,0.001h0.014l0.014,0.001h0.014
			l0.014,0.001h0.012l0.014,0.001l0.014,0.001h0.014l0.014,0.001l0.014,0.001l0.014,0.001h0.014l0.014,0.001l0.012,0.001
			l0.014,0.001l0.014,0.001l0.014,0.001l0.014,0.001l0.014,0.001l0.012,0.001l0.014,0.001l0.014,0.001l0.014,0.001l0.014,0.002
			l0.012,0.001l0.014,0.001l0.014,0.001l0.012,0.002l0.014,0.001l0.014,0.002L99.9,34.64l0.012,0.002l0.014,0.001l0.012,0.002
			l0.014,0.001l0.014,0.002l0.012,0.002l0.014,0.001l0.014,0.002l0.012,0.002l0.014,0.001l0.012,0.002l0.014,0.002l0.012,0.002
			l0.014,0.002l0.012,0.002l0.014,0.002l0.012,0.002l0.014,0.002l0.012,0.002l0.014,0.002l0.012,0.002l0.014,0.002l0.012,0.002
			l0.014,0.002l0.012,0.004l0.012,0.002l0.014,0.002l0.012,0.004l0.014,0.002l0.012,0.004l0.012,0.002l0.014,0.002l0.012,0.004
			l0.012,0.002l0.014,0.004l0.012,0.004l0.012,0.002l0.012,0.004l0.014,0.004l0.012,0.002l0.012,0.004l0.012,0.004l0.012,0.004
			l0.014,0.004l0.012,0.002l0.012,0.004l0.012,0.004l0.012,0.004l0.012,0.004l0.012,0.004l0.012,0.004l0.014,0.004l0.012,0.005
			l0.012,0.004l0.012,0.004l0.012,0.004l0.012,0.004l0.012,0.004l0.012,0.005l0.012,0.004l0.012,0.005l0.012,0.004l0.012,0.004
			l0.011,0.005l0.012,0.004l0.012,0.005l0.012,0.004l0.012,0.005l0.012,0.004l0.012,0.005l0.011,0.005l0.012,0.004l0.012,0.005
			l0.012,0.005l0.012,0.005l0.011,0.004l0.012,0.005l0.012,0.005l0.011,0.005l0.012,0.005l0.012,0.005l0.011,0.005l0.012,0.005
			l0.012,0.005l0.011,0.005l0.012,0.005l0.011,0.005l0.012,0.005l0.012,0.005l0.011,0.005l0.012,0.006l0.011,0.005l0.012,0.005
			l0.011,0.006l0.012,0.005l0.011,0.005l0.012,0.005l0.011,0.006l0.011,0.005l0.012,0.006l0.011,0.005l0.011,0.006l0.012,0.005
			l0.011,0.006l0.011,0.006l0.012,0.005l0.011,0.006l0.011,0.006l0.011,0.005l0.012,0.006l0.011,0.006l0.011,0.006l0.011,0.005
			l0.011,0.006l0.012,0.006l0.011,0.006l0.011,0.006l0.011,0.006l0.011,0.006l0.011,0.006l0.011,0.006l0.011,0.006l0.011,0.006
			l0.011,0.006l0.011,0.007l0.011,0.006l0.011,0.006l0.011,0.006l0.011,0.006l0.011,0.007l0.01,0.006l0.011,0.006l0.011,0.007
			l0.011,0.006l0.011,0.006l0.011,0.007l0.01,0.006l0.011,0.007l0.011,0.006l0.011,0.007l0.01,0.006l0.011,0.007l0.011,0.007
			l0.01,0.006l0.011,0.007l0.011,0.006l0.01,0.007l0.011,0.007l0.01,0.007l0.011,0.007l0.01,0.006l0.011,0.007l0.01,0.007
			l0.011,0.007l0.01,0.007l0.011,0.007l0.01,0.007l0.01,0.007l0.011,0.007l0.01,0.007l0.01,0.007L101.8,35.4l0.01,0.007l0.01,0.007
			l0.011,0.007l0.01,0.009l0.01,0.007l0.01,0.007l0.01,0.007l0.011,0.007l0.01,0.009l0.01,0.007l0.01,0.007l0.01,0.009l0.01,0.007
			l0.01,0.009l0.01,0.007l0.01,0.009l0.01,0.007l0.01,0.007l0.01,0.009l0.01,0.009l0.01,0.007l0.01,0.009l0.01,0.007l0.009,0.009
			l0.01,0.009l0.01,0.009l0.01,0.007l0.01,0.009l0.009,0.009l0.01,0.009l0.01,0.007l0.009,0.009l0.01,0.009l0.01,0.009l0.009,0.009
			l0.01,0.009l0.01,0.009l0.009,0.009l0.01,0.009l0.009,0.009l0.01,0.009l0.009,0.009l0.01,0.009l0.009,0.009l0.009,0.009
			l0.01,0.009l0.009,0.009l0.009,0.01l0.01,0.009l0.009,0.009l0.009,0.009l0.01,0.01l0.009,0.009l0.009,0.009l0.009,0.01
			l0.009,0.009l0.01,0.009l0.009,0.01l0.009,0.009l0.009,0.009l0.009,0.01l0.009,0.01l0.009,0.009l0.009,0.009l0.009,0.01
			l0.009,0.01l0.009,0.009l0.009,0.01l0.009,0.01l0.007,0.009l0.009,0.01l0.009,0.01l0.009,0.009l0.009,0.01l0.007,0.01l0.009,0.01
			l0.009,0.009l0.007,0.01l0.009,0.01l0.009,0.01l0.007,0.01l0.009,0.01l0.009,0.01l0.007,0.01l0.009,0.01l0.007,0.009l0.007,0.011
			l0.009,0.01l0.007,0.009l0.009,0.011l0.007,0.01l0.009,0.01l0.007,0.01l0.007,0.01l0.007,0.01l0.009,0.01l0.007,0.011l0.007,0.01
			l0.007,0.01l0.007,0.01l0.009,0.01l0.007,0.011l0.007,0.01l0.007,0.01l0.007,0.011l0.007,0.01l0.007,0.011l0.007,0.01l0.007,0.01
			l0.007,0.011l0.007,0.01l0.006,0.011l0.007,0.01l0.007,0.011l0.007,0.01l0.007,0.011l0.006,0.011l0.007,0.01l0.007,0.011
			l0.006,0.01l0.007,0.011l0.007,0.011l0.006,0.01l0.007,0.011l0.006,0.011l0.007,0.01l0.006,0.011l0.007,0.011l0.006,0.011
			l0.007,0.011l0.006,0.01l0.006,0.011l0.007,0.011l0.006,0.011l0.006,0.011l0.006,0.011l0.007,0.011l0.006,0.011l0.006,0.01
			l0.006,0.012l0.006,0.011l0.006,0.01l0.006,0.012l0.007,0.011l0.006,0.011l0.006,0.011l0.006,0.011l0.005,0.011l0.006,0.011
			l0.006,0.011l0.006,0.011l0.006,0.012l0.006,0.011l0.005,0.011l0.006,0.011l0.006,0.011l0.006,0.012l0.005,0.011l0.006,0.011
			l0.006,0.012l0.005,0.011l0.006,0.011l0.005,0.012l0.006,0.011l0.005,0.011l0.006,0.012l0.005,0.011l0.005,0.012l0.006,0.011
			l0.005,0.011l0.005,0.012l0.006,0.011l0.005,0.012l0.005,0.011l0.005,0.012l0.005,0.012l0.006,0.011l0.005,0.012l0.005,0.011
			l0.005,0.012l0.005,0.012l0.005,0.011l0.005,0.012l0.005,0.012l0.005,0.011l0.005,0.012l0.005,0.012l0.004,0.011l0.005,0.012
			l0.005,0.012l0.005,0.012l0.004,0.011l0.005,0.012l0.005,0.012l0.004,0.012l0.005,0.012l0.004,0.011l0.005,0.012l0.004,0.012
			l0.005,0.012l0.004,0.012l0.005,0.012l0.004,0.012l0.005,0.012l0.004,0.012l0.004,0.012l0.004,0.012l0.005,0.012l0.004,0.012
			l0.004,0.012l0.004,0.012l0.004,0.012l0.004,0.012l0.004,0.012l0.004,0.012l0.004,0.012l0.004,0.012l0.004,0.014l0.004,0.012
			l0.004,0.012l0.004,0.012l0.004,0.012l0.004,0.014l0.002,0.012l0.004,0.012l0.004,0.012l0.002,0.012l0.004,0.014l0.002,0.012
			l0.004,0.012l0.004,0.014l0.002,0.012l0.004,0.012l0.002,0.014l0.004,0.012l0.002,0.012l0.002,0.014l0.004,0.012l0.002,0.012
			l0.002,0.014l0.002,0.012l0.002,0.014l0.004,0.012l0.002,0.014l0.002,0.012l0.002,0.014l0.002,0.012l0.002,0.014l0.002,0.012
			l0.002,0.014l0.002,0.012l0.002,0.014l0.001,0.012l0.002,0.014l0.002,0.012l0.002,0.014l0.001,0.014l0.002,0.012l0.002,0.014
			l0.001,0.012l0.002,0.014l0.002,0.014l0.001,0.012l0.001,0.014l0.002,0.014l0.001,0.014l0.002,0.012l0.001,0.014l0.001,0.014
			l0.002,0.012l0.001,0.014l0.001,0.014l0.001,0.014l0.001,0.012l0.002,0.014l0.001,0.014l0.001,0.014l0.001,0.014l0.001,0.012
			l0.001,0.014l0.001,0.014v0.014l0.001,0.014l0.001,0.014l0.001,0.014l0.001,0.012v0.014l0.001,0.014l0.001,0.014V38.6l0.001,0.014
			v0.014l0.001,0.014v0.014l0.001,0.014v0.014l0.001,0.014v0.014v0.014v0.014l0.001,0.014v0.014v0.014v0.014v0.014v0.014v0.014
			v15.383h-1.798V38.89v-0.007v-0.009v-0.007V38.86v-0.009l-0.001-0.007v-0.007v-0.009V38.82v-0.007v-0.007l-0.001-0.009V38.79
			v-0.007v-0.009l-0.001-0.007V38.76v-0.007l-0.001-0.009v-0.007V38.73l-0.001-0.007v-0.009l-0.001-0.007V38.7l-0.001-0.007v-0.009
			l-0.001-0.007V38.67l-0.001-0.007l-0.001-0.007v-0.009l-0.001-0.007l-0.001-0.007V38.62l-0.001-0.007l-0.001-0.007v-0.009
			l-0.001-0.007l-0.001-0.007l-0.001-0.007l-0.001-0.007V38.56l-0.001-0.007l-0.001-0.009l-0.001-0.007l-0.001-0.007l-0.001-0.007
			l-0.001-0.007l-0.001-0.007l-0.001-0.007l-0.001-0.007l-0.001-0.007l-0.001-0.007l-0.001-0.007l-0.001-0.007l-0.001-0.007
			l-0.001-0.007l-0.001-0.007l-0.001-0.007l-0.001-0.007l-0.002-0.007l-0.001-0.007l-0.001-0.007l-0.001-0.007l-0.002-0.007
			l0.023-0.017l-0.001-0.007l-0.001-0.007l-0.002-0.007l-0.001-0.007l-0.001-0.007l-0.002-0.007l-0.001-0.007l-0.002-0.007
			l-0.001-0.007l-0.001-0.007l-0.002-0.007l-0.001-0.006l-0.002-0.007l-0.002-0.007l-0.001-0.007l-0.002-0.007l-0.001-0.007
			l-0.002-0.007l-0.001-0.007l-0.002-0.006l-0.002-0.007l-0.001-0.007l-0.002-0.007l-0.002-0.007l-0.001-0.006l-0.002-0.007
			l-0.002-0.007l-0.002-0.007l-0.002-0.006l-0.001-0.007l-0.002-0.007l-0.002-0.007l-0.002-0.007l-0.002-0.006l-0.001-0.007
			l-0.002-0.007l-0.002-0.006l-0.002-0.007l-0.002-0.007l-0.002-0.006l-0.002-0.007l-0.002-0.007l-0.002-0.006l-0.002-0.007
			l-0.002-0.007l-0.002-0.006l-0.004-0.007l-0.002-0.006l-0.002-0.007l-0.002-0.007l-0.002-0.006l-0.002-0.007l-0.002-0.006
			l-0.004-0.007l-0.002-0.007l-0.002-0.006l-0.002-0.007l-0.004-0.006l-0.002-0.007l-0.002-0.006l-0.002-0.007l-0.004-0.006
			l-0.002-0.007l-0.004-0.006l-0.002-0.007l-0.002-0.006l-0.004-0.007l-0.002-0.006l-0.004-0.007l-0.002-0.006l-0.004-0.006
			l-0.002-0.007l-0.004-0.006l-0.002-0.007l-0.004-0.006l-0.002-0.006l-0.004-0.007l-0.002-0.006l-0.004-0.006l-0.004-0.007
			l-0.002-0.006l-0.004-0.007l-0.004-0.006l-0.002-0.006l-0.004-0.006l-0.004-0.007l-0.002-0.006l-0.004-0.006l-0.004-0.006
			l-0.004-0.007l-0.004-0.006l-0.002-0.006l-0.004-0.006l-0.004-0.007l-0.004-0.006l-0.004-0.006l-0.004-0.006l-0.004-0.006
			l-0.002-0.006l-0.004-0.007l-0.004-0.006l-0.004-0.006l-0.004-0.006l-0.004-0.006l-0.004-0.006l-0.004-0.006l-0.004-0.006
			l-0.004-0.007l-0.005-0.006l-0.004-0.006l-0.004-0.006l-0.004-0.006l-0.004-0.006l-0.004-0.006l-0.004-0.006l-0.004-0.006
			l-0.005-0.006l-0.004-0.006l-0.004-0.006l-0.004-0.006l-0.004-0.006l-0.005-0.005l-0.004-0.006l-0.004-0.006l-0.005-0.006
			l-0.004-0.006l-0.004-0.006l-0.005-0.006l-0.004-0.006l-0.004-0.006l-0.005-0.006l-0.004-0.005l-0.004-0.006l-0.005-0.006
			l-0.004-0.006l-0.005-0.006l-0.004-0.005l-0.005-0.006l-0.004-0.006l-0.005-0.005l-0.004-0.006l-0.005-0.006l-0.004-0.006
			l-0.005-0.005l-0.005-0.006l-0.004-0.006l-0.005-0.005l-0.004-0.006l-0.005-0.006l-0.005-0.005l-0.004-0.006l-0.005-0.006
			l-0.005-0.005l-0.004-0.006l-0.005-0.005l-0.005-0.006l-0.005-0.005l-0.004-0.006l-0.005-0.005l-0.005-0.006l-0.005-0.005
			l-0.005-0.006l-0.004-0.006l-0.005-0.005l-0.005-0.005l-0.005-0.006l-0.005-0.005l-0.005-0.006l-0.005-0.005l-0.005-0.006
			l-0.004-0.005l-0.005-0.005l-0.005-0.006l-0.005-0.005l-0.005-0.005l-0.005-0.006l-0.005-0.005l-0.005-0.005l-0.005-0.006
			l-0.005-0.005l-0.006-0.005l-0.005-0.005l-0.005-0.006l-0.005-0.005l-0.005-0.005l-0.005-0.005l-0.005-0.006l-0.005-0.005
			l-0.005-0.005l-0.006-0.005l-0.005-0.005l-0.005-0.005l-0.005-0.005l-0.005-0.005l-0.006-0.006l-0.005-0.005l-0.005-0.005
			l-0.005-0.005l-0.006-0.005l-0.005-0.005l-0.005-0.005l-0.006-0.005l-0.005-0.005l-0.005-0.005l-0.006-0.005l-0.005-0.005
			l-0.005-0.005l-0.006-0.005l-0.005-0.005l-0.006-0.005l-0.005-0.004l-0.005-0.005l-0.006-0.005l-0.005-0.005l-0.006-0.005
			l-0.005-0.005l-0.006-0.005l-0.005-0.004l-0.006-0.005l-0.005-0.005l-0.006-0.005l-0.005-0.004l-0.006-0.005l-0.005-0.005
			l-0.006-0.005l-0.006-0.004l-0.005-0.005l-0.006-0.005l-0.006-0.004l-0.005-0.005l-0.006-0.005l-0.006-0.004l-0.005-0.005
			l-0.006-0.004l-0.006-0.005l-0.005-0.004l-0.006-0.005l-0.006-0.005l-0.006-0.004l-0.005-0.004l-0.006-0.005l-0.006-0.004
			l-0.006-0.005l-0.005-0.004l-0.006-0.005l-0.006-0.004l-0.006-0.005l-0.006-0.004l-0.006-0.004l-0.005-0.005l-0.006-0.004
			l-0.006-0.004l-0.006-0.005l-0.006-0.004l-0.006-0.004L100.68,36.9l-0.006-0.005l-0.006-0.004l-0.006-0.004l-0.006-0.005
			l-0.005-0.004l-0.006-0.004l-0.007-0.004l-0.005-0.004l-0.007-0.004l-0.005-0.004l-0.007-0.005l-0.006-0.004l-0.006-0.004
			l-0.006-0.004l-0.006-0.004l-0.006-0.004l-0.006-0.004l-0.006-0.004l-0.006-0.004l-0.006-0.004l-0.007-0.004l-0.006-0.004
			l-0.006-0.004l-0.006-0.004l-0.006-0.004l-0.006-0.002l-0.007-0.004l-0.006-0.004l-0.006-0.004l-0.006-0.004l-0.006-0.004
			l-0.007-0.002l-0.006-0.004l-0.006-0.004l-0.006-0.004l-0.007-0.002l-0.006-0.004l-0.006-0.004l-0.006-0.004l-0.007-0.002
			l-0.006-0.004l-0.007-0.004l-0.006-0.002l-0.006-0.004l-0.006-0.002l-0.007-0.004l-0.006-0.004l-0.007-0.002l-0.006-0.004
			l-0.006-0.002l-0.007-0.004l-0.006-0.002l-0.007-0.004l-0.006-0.002l-0.007-0.002l-0.006-0.004l-0.007-0.002l-0.006-0.004
			l-0.007-0.002l-0.006-0.002l-0.006-0.004l-0.007-0.002l-0.006-0.002l-0.007-0.004l-0.007-0.002l-0.006-0.002l-0.007-0.004
			l-0.006-0.002l-0.007-0.002l-0.006-0.002l-0.007-0.002l-0.006-0.002l-0.007-0.004l-0.007-0.002l-0.006-0.002l-0.007-0.002
			l-0.007-0.002l-0.006-0.002l-0.007-0.002l-0.007-0.002l-0.006-0.002l-0.007-0.002l-0.007-0.002l-0.006-0.002l-0.007-0.002
			l-0.007-0.002l-0.006-0.002l-0.007-0.002l-0.007-0.001l-0.007-0.002l-0.006-0.002l-0.007-0.002l-0.007-0.002l-0.007-0.002
			l-0.006-0.001l-0.007-0.002l-0.007-0.002l-0.007-0.002l-0.006-0.001L100,36.56l-0.007-0.002l-0.007-0.001l-0.007-0.002
			l-0.007-0.001l-0.006-0.002l-0.007-0.002l-0.007-0.001l-0.007-0.002l-0.007-0.001l-0.007-0.002l-0.007-0.001l-0.007-0.002
			L99.91,36.54l-0.006-0.002l-0.007-0.001l-0.007-0.001l-0.007-0.002l-0.007-0.001l-0.007-0.002l-0.007-0.001l-0.007-0.001
			l-0.007-0.001l-0.007-0.002l-0.007-0.001l-0.007-0.001l-0.007-0.002l-0.007-0.001l-0.007-0.001l-0.007-0.001l-0.007-0.001
			l-0.007-0.001l-0.007-0.001l-0.007-0.001l-0.007-0.001l-0.007-0.002L99.736,36.5l-0.007-0.001l-0.007-0.001l-0.007-0.001
			l-0.007-0.001h-0.007l-0.009-0.001l-0.007-0.001l-0.007-0.001l-0.007-0.001l-0.007-0.001l-0.007-0.001l-0.007-0.001h-0.007
			l-0.009-0.001l-0.007-0.001l-0.007-0.001h-0.007L99.6,36.481l-0.007-0.001h-0.009l-0.007-0.001l-0.007-0.001h-0.007l-0.007-0.001
			h-0.007l-0.009-0.001h-0.007l-0.007-0.001h-0.007l-0.009-0.001H99.5l-0.007-0.001h-0.007l-0.009-0.001H99.47h-0.007l-0.007-0.001
			h-0.009H99.44h-0.007l-0.007-0.001h-0.009H99.41H99.4h-0.009l-0.007-0.001h-0.007h-0.009h-0.007h-0.007h-0.009h-0.007H99.33H40.42
			h-0.009h-0.007h-0.007h-0.009H40.38h-0.007h-0.009l-0.007,0.001H40.35h-0.009h-0.007h-0.007l-0.007,0.001h-0.01h-0.007h-0.007
			l-0.007,0.001H40.28h-0.007l-0.007,0.001h-0.007l-0.009,0.001h-0.007l-0.007,0.001h-0.007l-0.009,0.001h-0.01l-0.007,0.001h-0.007
			l-0.009,0.001H40.18l-0.007,0.001l-0.007,0.001h-0.007l-0.007,0.001l-0.009,0.001h-0.007l-0.007,0.001l-0.007,0.001l-0.007,0.001
			h-0.007l-0.007,0.001l-0.007,0.001L40.08,36.49l-0.007,0.001l-0.007,0.001l-0.007,0.001l-0.007,0.001h-0.007l-0.007,0.001
			l-0.007,0.001l-0.007,0.001l-0.01,0.003l-0.007,0.001L40,36.503l-0.009,0.001l-0.007,0.001l-0.007,0.001l-0.007,0.001l-0.01,0.003
			l-0.007,0.001l-0.007,0.001l-0.007,0.001l-0.007,0.002l-0.007,0.001l-0.007,0.001l-0.007,0.002l-0.007,0.001l-0.007,0.001
			l-0.007,0.001l-0.006,0.002l-0.007,0.001l-0.007,0.002l-0.007,0.001l-0.007,0.001l-0.007,0.002l-0.007,0.001l-0.007,0.002
			l-0.007,0.001l-0.007,0.002l-0.007,0.001L39.8,36.547l-0.007,0.001l-0.007,0.002l-0.007,0.002l-0.007,0.001l-0.007,0.002
			l-0.006,0.001l-0.007,0.002l-0.007,0.002l-0.007,0.001l-0.007,0.002l-0.006,0.002l-0.007,0.002l-0.007,0.001l-0.007,0.002
			l-0.006,0.002l-0.007,0.002l-0.007,0.002l-0.007,0.002l-0.006,0.001l-0.007,0.002l-0.007,0.002l-0.007,0.002l-0.006,0.002
			l-0.007,0.002l-0.007,0.002l-0.006,0.002l-0.007,0.002L39.6,36.608l-0.006,0.002l-0.007,0.002l-0.007,0.002l-0.006,0.002
			l-0.007,0.002l-0.006,0.002l-0.007,0.004l-0.007,0.002l-0.006,0.002l-0.007,0.002l-0.006,0.002l-0.007,0.002l-0.006,0.004
			l-0.007,0.002l-0.007,0.002l-0.006,0.004l-0.007,0.002l-0.006,0.002l-0.007,0.004l-0.006,0.002l-0.007,0.002l-0.006,0.004
			l-0.006,0.002l-0.007,0.004l-0.006,0.002l-0.007,0.002l-0.006,0.004l-0.007,0.002l-0.006,0.004l-0.007,0.002l-0.006,0.004
			l-0.006,0.002l-0.007,0.004l-0.006,0.004L39.373,36.7l-0.007,0.004l-0.006,0.002l-0.006,0.004l-0.007,0.004l-0.006,0.002
			l-0.006,0.004l-0.007,0.004l-0.006,0.004l-0.006,0.002l-0.006,0.004l-0.007,0.004l-0.006,0.004l-0.006,0.002l-0.006,0.004
			l-0.007,0.004l-0.006,0.004l-0.006,0.004l-0.006,0.004l-0.007,0.002l-0.006,0.004l-0.006,0.004l-0.006,0.004l-0.006,0.004
			l-0.006,0.004l-0.006,0.004l-0.007,0.004l-0.006,0.004l-0.006,0.004l-0.006,0.004l-0.006,0.004l-0.006,0.004l-0.006,0.004
			l-0.006,0.004l-0.006,0.005l-0.006,0.004l-0.006,0.004l-0.006,0.004l-0.006,0.004l-0.006,0.004l-0.006,0.004l-0.006,0.005
			l-0.006,0.004l-0.006,0.004l-0.006,0.005l-0.006,0.004l-0.006,0.004l-0.006,0.004l-0.006,0.005l-0.005,0.004l-0.006,0.004
			l-0.006,0.005l-0.006,0.004l-0.006,0.004l-0.006,0.005l-0.005,0.004l-0.006,0.005l-0.006,0.004L39.02,36.93l-0.006,0.004
			l-0.005,0.005l-0.006,0.004l-0.006,0.004l-0.006,0.005l-0.005,0.005l-0.006,0.004l-0.006,0.005l-0.005,0.004l-0.029,0
			l-0.006,0.004l-0.005,0.005l-0.006,0.005l-0.006,0.004l-0.005,0.005l-0.006,0.005l-0.005,0.004l-0.006,0.005l-0.006,0.005
			l-0.005,0.005l-0.006,0.004l-0.005,0.005l-0.006,0.005l-0.005,0.005l-0.006,0.004l-0.005,0.005l-0.006,0.005l-0.005,0.005
			l-0.006,0.005l-0.005,0.005l-0.006,0.005l-0.005,0.004l-0.006,0.005l-0.005,0.005l-0.005,0.005l-0.006,0.005l-0.005,0.005
			l-0.005,0.005l-0.006,0.005l-0.005,0.005l-0.005,0.005l-0.006,0.005l-0.005,0.005l-0.005,0.005l-0.006,0.005l-0.005,0.005
			l-0.005,0.005l-0.005,0.006l-0.005,0.005l-0.006,0.005l-0.005,0.005l-0.005,0.005l-0.005,0.005l-0.005,0.005l-0.006,0.005
			l-0.005,0.006l-0.005,0.005l-0.005,0.005l-0.005,0.005l-0.005,0.006l-0.005,0.005l-0.005,0.005l-0.005,0.005l-0.005,0.006
			l-0.005,0.005l-0.005,0.005l-0.005,0.006l-0.005,0.005l-0.005,0.005l-0.005,0.006l-0.005,0.005l-0.005,0.005l-0.005,0.006
			l-0.005,0.005l-0.005,0.006l-0.005,0.005l-0.004,0.006l-0.005,0.005l-0.005,0.005l-0.005,0.006l-0.005,0.006l-0.005,0.005
			l-0.004,0.006l-0.005,0.005l-0.005,0.006l-0.005,0.005L38.54,37.36l-0.005,0.005l-0.005,0.006l-0.004,0.005l-0.005,0.006
			l-0.005,0.006l-0.005,0.005L38.508,37.4l-0.005,0.006L38.5,37.411l-0.005,0.006l-0.005,0.006l-0.004,0.005l-0.005,0.006
			l-0.004,0.006l-0.005,0.006l-0.004,0.005l-0.005,0.006l-0.004,0.006l-0.005,0.005l-0.004,0.006l-0.005,0.006l-0.004,0.006
			l-0.005,0.006l-0.004,0.005l-0.004,0.006l-0.005,0.006l-0.004,0.006l-0.004,0.006l-0.005,0.006l-0.004,0.006l-0.004,0.006
			l-0.005,0.006l-0.004,0.006l-0.004,0.005l-0.004,0.006l-0.005,0.006l-0.004,0.006l-0.004,0.006l-0.004,0.006l-0.004,0.006
			l-0.005,0.006l-0.004,0.006l-0.004,0.006l-0.004,0.006l-0.004,0.006l-0.004,0.006l-0.004,0.006l-0.004,0.007l-0.004,0.006
			l-0.004,0.006l-0.004,0.006l-0.004,0.006l-0.004,0.006l-0.004,0.006l-0.004,0.006l-0.004,0.007l-0.004,0.006l-0.004,0.006
			l-0.004,0.006l-0.004,0.006l-0.004,0.006l-0.002,0.007l-0.004,0.006l-0.004,0.006l-0.004,0.006l-0.004,0.007l-0.002,0.006
			l-0.004,0.006l-0.004,0.006l-0.004,0.007l-0.002,0.006l0.009,0.017l-0.004,0.006l-0.002,0.007l-0.004,0.006l-0.002,0.007
			l-0.004,0.006l-0.004,0.006l-0.002,0.007l-0.004,0.006l-0.002,0.006l-0.004,0.007L38.22,37.87l-0.004,0.007l-0.002,0.006
			l-0.004,0.006L38.207,37.9l-0.004,0.006l-0.002,0.007l-0.004,0.006l-0.002,0.007l-0.002,0.006l-0.004,0.007l-0.002,0.006
			l-0.002,0.007l-0.004,0.006l-0.002,0.007l-0.002,0.006l-0.002,0.007l-0.004,0.006l-0.002,0.007l-0.002,0.007l-0.002,0.006
			l-0.004,0.007l-0.002,0.006l-0.002,0.007l-0.002,0.007l-0.002,0.006l-0.002,0.007l-0.002,0.006l-0.002,0.007l-0.002,0.007
			l-0.002,0.006l-0.002,0.007l-0.002,0.007l-0.002,0.006l-0.002,0.007l-0.002,0.007l-0.002,0.006l-0.002,0.007l-0.002,0.007
			l-0.002,0.006l-0.002,0.007l-0.002,0.007l-0.001,0.007l-0.002,0.007l-0.002,0.006l-0.016,0.02l-0.001,0.007l-0.002,0.007
			l-0.002,0.006l-0.002,0.007L38.09,38.22l-0.002,0.007l-0.002,0.007l-0.001,0.006l-0.002,0.007l-0.001,0.007l-0.002,0.007
			l-0.002,0.007l-0.001,0.007l-0.002,0.007l-0.001,0.007l-0.002,0.006l-0.001,0.007l-0.001,0.007l-0.002,0.007l-0.001,0.007
			l-0.002,0.007l-0.001,0.007l-0.001,0.007l-0.002,0.007l-0.001,0.007l-0.001,0.007l-0.002,0.007l-0.001,0.007l-0.001,0.007
			l-0.002,0.007L38.052,38.4l-0.001,0.007l-0.001,0.007l-0.001,0.007l-0.002,0.007l-0.001,0.007l-0.001,0.007l-0.001,0.007
			l-0.001,0.007l-0.001,0.007l-0.001,0.007l-0.001,0.007l-0.001,0.007l-0.001,0.007l-0.001,0.007l-0.001,0.007l-0.001,0.007
			l-0.001,0.007v0.007l-0.001,0.009l-0.001,0.007l-0.001,0.007l-0.001,0.007l-0.001,0.007l-0.001,0.007v0.007l-0.001,0.009
			l-0.001,0.007V38.6l-0.001,0.007l-0.001,0.007v0.007l-0.001,0.009l-0.001,0.007v0.007l-0.001,0.007v0.007l-0.001,0.009v0.007
			l-0.001,0.007v0.007l-0.001,0.009v0.007v0.007L38,38.742v0.009l-0.001,0.007v0.007v0.007v0.009l-0.001,0.007v0.007v0.009v0.007
			l-0.001,0.007v0.007v0.009v0.007v0.007v0.009v0.007v0.007l-0.001,0.009v0.007V54.21h-1.825V54.214z"/>
	</g>
</g>
</svg>
